<svg width="226" height="641" xmlns="http://www.w3.org/2000/svg" xmlns:xlink="http://www.w3.org/1999/xlink" overflow="hidden"><defs><clipPath id="clip0"><path d="M34 40 260 40 260 681 34 681Z" fill-rule="evenodd" clip-rule="evenodd"/></clipPath><clipPath id="clip1"><path d="M156 76 173 76 173 84 156 84Z" fill-rule="evenodd" clip-rule="evenodd"/></clipPath><clipPath id="clip2"><path d="M156 76 173 76 173 84 156 84Z" fill-rule="evenodd" clip-rule="evenodd"/></clipPath><clipPath id="clip3"><path d="M156 76 173 76 173 84 156 84Z" fill-rule="evenodd" clip-rule="evenodd"/></clipPath><clipPath id="clip4"><path d="M127 76 144 76 144 85 127 85Z" fill-rule="evenodd" clip-rule="evenodd"/></clipPath><clipPath id="clip5"><path d="M127 76 144 76 144 85 127 85Z" fill-rule="evenodd" clip-rule="evenodd"/></clipPath><clipPath id="clip6"><path d="M127 76 144 76 144 85 127 85Z" fill-rule="evenodd" clip-rule="evenodd"/></clipPath><clipPath id="clip7"><path d="M144 87 156 87 156 102 144 102Z" fill-rule="evenodd" clip-rule="evenodd"/></clipPath><clipPath id="clip8"><path d="M144 87 156 87 156 102 144 102Z" fill-rule="evenodd" clip-rule="evenodd"/></clipPath><clipPath id="clip9"><path d="M144 87 156 87 156 102 144 102Z" fill-rule="evenodd" clip-rule="evenodd"/></clipPath></defs><g clip-path="url(#clip0)" transform="translate(-34 -40)"><path d="M255.87 283.958C254.178 278.728 254.129 270.77 255.008 265.404 257.84 248.086 252.713 218.786 251.232 211.024 251.02 209.954 251.053 208.221 251.264 207.151 259.142 166.532 223.594 156.433 214.137 154.489 212.9 154.233 210.979 153.645 209.889 153.102L178.931 137.729C177.84 137.186 176.815 135.86 176.668 134.79L174.829 121.632C174.682 120.547 175.154 118.964 175.854 118.06 180.265 112.242 183.472 108.911 185.116 100.848 187.248 98.9787 189.217 94.5024 190.048 89.1216 191.187 81.7966 189.803 75.6019 186.939 75.2704 186.499 75.2252 186.06 75.3306 185.62 75.5266 183.635 60.4546 180.64 40.2129 149.454 40.0019 115.419 39.7758 115.028 60.3641 112.815 75.0443 112.375 74.8182 111.92 74.7127 111.48 74.7579 108.615 75.0443 107.134 81.2389 108.176 88.579 108.941 93.9597 110.845 98.4662 112.945 100.365 114.459 108.459 117.616 111.835 121.946 117.713 122.613 118.633 123.085 120.23 122.923 121.3L120.888 134.428C120.725 135.498 119.684 136.81 118.577 137.337L87.4069 152.258C86.3002 152.786 84.3795 153.359 83.1425 153.6 73.6694 155.424 37.9747 165.024 45.2667 205.749 45.462 206.819 45.462 208.552 45.2342 209.622 43.6553 217.369 38.1049 246.594 40.6767 263.942 41.4742 269.323 40.6279 276.949 38.5444 282.074 35.0775 290.574 32.3268 305.541 39.4722 328.058L42.874 361.609C42.874 361.609 42.4834 363.643 42.8415 367.02L42.874 367.02C42.9229 372.626 43.0205 390.08 42.6624 392.898 42.2392 396.259 49.7265 402.047 49.694 405.423 49.694 405.423 67.4192 418.43 71.3744 419.606 71.3744 419.606 74.5646 415.717 71.4233 413.336 71.4233 413.336 72.6278 410.653 70.6583 409.282 70.6583 409.282 62.5851 404.172 57.7834 397.058 57.7834 397.058 59.1181 389.989 57.8485 386.945L60.1598 384.714 63.6267 396.425C63.6267 396.425 67.6959 402.529 70.6908 396.139 70.6908 396.139 70.4304 386.704 68.0866 382.303 68.0866 382.303 70.1863 368.346 62.3409 363.071 62.2921 362.83 62.2432 362.589 62.2106 362.332L62.1131 361.232C62.0968 360.78 62.0805 360.313 62.1456 359.906 63.5942 350.832 67.3541 328.043 70.6095 314.599 70.6095 314.599 74.8414 303.461 72.5138 288.947 71.6512 283.566 71.7 275.186 73.5556 270.001 76.5504 261.636 80.5545 249.578 81.5799 242.148 81.5799 242.148 94.878 292.172 85.1282 306.475 81.2707 312.142 77.7711 335.79 76.7295 367.261 75.2483 412.176 78.7803 473.021 93.4456 520.332 95.0732 525.577 95.3337 534.063 95.2523 539.489 95.236 540.619 95.2849 542.096 95.3988 543.83 96.1475 555.224 99.6632 578.797 104.709 602.324 106.141 609.016 107.037 616.01 109.088 622.581 110.634 627.54 110.943 631.669 110.341 637.005 110.113 639.025 109.527 641.014 108.794 642.943 107.72 645.762 106.89 648.083 104.856 650.509 102.43 653.418 101.275 657.156 98.3448 659.764 94.9105 662.808 89.2299 663.698 85.0956 665.928 83.9726 666.546 80.6521 668.174 80.3918 669.485L80.3592 673.464C80.3429 674.7 81.2056 675.831 82.2636 675.996 83.3215 676.162 84.0052 675.303 84.0377 674.067 84.119 671.957 84.819 669.425 87.2117 667.496 87.6023 667.179 88.2207 667.179 88.5952 667.526 88.9695 667.857 88.9533 668.385 88.5626 668.701 86.4955 670.374 85.9909 672.605 85.9909 674.384 85.9909 675.62 87.0652 676.72 88.0743 676.855 89.0835 677.006 89.702 676.117 89.7345 674.896 89.7834 672.756 90.467 670.163 92.9085 668.189 93.2991 667.872 93.9176 667.888 94.292 668.219 94.6663 668.551 94.65 669.078 94.2594 669.395 92.1435 671.113 91.6715 673.389 91.6877 675.198 91.704 676.433 92.7782 677.519 93.7874 677.654 94.7966 677.775 95.4151 676.901 95.4314 675.665 95.464 673.509 96.1475 670.887 98.6053 668.882 98.996 668.551 99.6145 668.581 99.9889 668.897 100.363 669.229 100.347 669.756 99.9563 670.088 97.8403 671.821 97.3682 674.112 97.4008 675.921 97.4171 677.157 98.8494 678.272 100.282 678.438 101.714 678.604 102.886 677.714 103.13 676.509 103.635 673.992 105.1 670.766 109.12 668.837 109.592 668.596 110.194 668.747 110.455 669.154 110.715 669.561 110.552 670.058 110.08 670.284 106.809 671.851 105.555 674.549 105.1 676.69 104.839 677.895 106.011 679.011 107.443 679.116 108.843 679.222 110.145 679.282 111.285 679.297 111.285 679.297 118.316 682.116 127.171 670.691 127.171 670.691 141.673 670.284 132.656 655.076 132.086 654.112 131.907 651.851 131.728 650.766 131.289 648.203 133.063 647.179 134.3 645.204 135.635 643.064 134.023 641.029 133.258 638.964 132.77 637.653 133.242 636.206 133.307 634.88 133.307 634.82 136.221 578.691 136.221 578.691 136.221 578.691 137.23 560.364 135.879 544.071 135.586 540.484 135.163 537.002 134.609 533.837 133.649 528.471 132.656 519.956 133.486 514.575 137.523 488.787 147.712 418.445 144.213 387.472L149.714 387.503C145.759 418.445 155.411 488.907 159.252 514.756 160.05 520.136 158.959 528.637 157.869 533.973 157.234 537.138 156.632 540.619 156.225 544.191 154.63 560.454 155.281 578.797 155.281 578.797 155.281 578.797 157.397 634.955 157.397 635.031 157.445 636.357 157.901 637.819 157.397 639.115 156.615 641.165 154.955 643.185 156.257 645.34 157.462 647.329 159.236 648.369 158.748 650.932 158.536 652.017 158.341 654.277 157.755 655.227 148.526 670.299 163.012 670.902 163.012 670.902 171.72 682.447 178.784 679.719 178.784 679.719 179.924 679.719 181.209 679.659 182.625 679.583 184.074 679.508 185.262 678.408 185.002 677.187 184.579 675.032 183.358 672.334 180.119 670.721 179.647 670.48 179.5 669.983 179.761 669.576 180.037 669.169 180.64 669.033 181.095 669.274 185.083 671.249 186.499 674.504 186.971 677.021 187.199 678.227 188.355 679.131 189.787 678.996 191.22 678.86 192.668 677.745 192.701 676.524 192.766 674.715 192.326 672.424 190.227 670.661 189.836 670.329 189.836 669.802 190.21 669.47 190.585 669.138 191.22 669.138 191.594 669.47 194.019 671.505 194.67 674.142 194.67 676.283 194.67 677.504 195.272 678.408 196.282 678.287 197.291 678.167 198.381 677.081 198.414 675.861 198.463 674.067 198.023 671.776 195.94 670.028 195.549 669.711 195.549 669.169 195.924 668.852 196.298 668.521 196.933 668.521 197.307 668.837 199.716 670.857 200.367 673.464 200.383 675.589 200.4 676.825 201.002 677.699 202.011 677.579 203.02 677.443 204.111 676.358 204.127 675.122 204.16 673.344 203.687 671.113 201.637 669.395 201.246 669.078 201.246 668.536 201.62 668.219 201.995 667.888 202.613 667.888 203.004 668.219 205.364 670.194 206.031 672.726 206.08 674.836 206.113 676.072 206.764 676.931 207.838 676.795 208.896 676.644 209.775 675.529 209.791 674.293L209.824 670.314C209.58 669.003 206.292 667.33 205.169 666.697 201.067 664.406 195.403 663.441 192.017 660.352 189.12 657.714 188.029 653.946 185.637 651.007 183.635 648.55 182.837 646.229 181.812 643.38 181.112 641.436 180.542 639.447 180.347 637.412 179.826 632.076 180.184 627.947 181.795 623.018 183.928 616.477 184.937 609.483 186.467 602.822 191.854 579.354 195.305 555.827 196.216 544.448 196.249 542.714 196.282 541.237 196.249 540.107 196.102 534.681 196.282 526.195 198.007 520.98 213.811 473.112 218.353 412.733 217.539 368.15 216.969 336.634 213.746 313.002 209.938 307.259 200.4 292.82 214.414 242.992 214.414 242.992 215.342 250.453 219.167 262.555 222.047 270.951 223.838 276.166 223.496 284.47 222.503 289.821 219.866 303.823 224.359 315.579 224.359 315.579 227.419 329.068 230.869 351.918 232.188 360.991 232.334 362.016 232.188 363.267 231.879 364.503 224.522 369.914 226.328 383.297 226.328 383.297 223.919 387.668 223.529 397.103 223.529 397.103 226.426 403.524 230.577 397.48 230.577 397.48L234.206 385.815 236.485 388.075C235.167 391.105 236.42 398.189 236.42 398.189 231.521 405.242 223.366 410.246 223.366 410.246 221.38 411.588 222.552 414.286 222.552 414.286 219.362 416.622 222.503 420.556 222.503 420.556 226.475 419.44 244.379 406.674 244.379 406.674 244.395 403.298 251.964 397.616 251.59 394.255 251.28 391.436 251.622 373.983 251.752 368.376L251.785 368.376C252.192 365.015 251.818 362.965 251.818 362.965L255.301 329.46C261.356 308.781 258.816 293.106 255.87 283.958Z" fill="#FFDBB0" fill-rule="evenodd"/><g clip-path="url(#clip1)"><g clip-path="url(#clip2)"><g clip-path="url(#clip3)"><path d="M0.115835 5.17275C0.115835 5.17275 3.12754 0.524877 7.92021 0.550215 12.7093 0.579174 15.9635 3.98182 15.9635 3.98182 15.9635 3.98182 12.3147 7.61976 8.02156 7.61614 3.73205 7.61252 0.115835 5.17275 0.115835 5.17275Z" fill="#FFFFFF" transform="matrix(1.0163 0 -0 1 156 76.0888)"/><path d="M4.50308 4.00716C4.41258 5.96549 5.98359 7.63424 8.01794 7.72835 10.0523 7.82247 11.7753 6.313 11.8658 4.35467 11.9563 2.39633 10.3853 0.727588 8.35097 0.633472 6.31662 0.535736 4.59357 2.04521 4.50308 4.00716Z" fill="#BD8945" transform="matrix(1.0163 0 -0 1 156 76.0888)"/><path d="M5.55645 4.05784C5.48044 5.66143 6.7691 7.02249 8.42698 7.10212 10.0885 7.18176 11.4966 5.94377 11.5726 4.34381 11.6486 2.74022 10.36 1.37916 8.70209 1.29952 7.04059 1.21989 5.63247 2.45425 5.55645 4.05784Z" fill="#FFF7E6" fill-opacity="0.3" transform="matrix(1.0163 0 -0 1 156 76.0888)"/><path d="M4.76009 4.58634C4.68407 6.24784 5.96549 7.65958 7.627 7.73921 9.28851 7.81885 10.7002 6.53381 10.7799 4.8723 10.8595 3.2108 9.57447 1.79906 7.91297 1.72304 6.24784 1.63979 4.8361 2.92483 4.76009 4.58634Z" fill="#A9A64F" fill-opacity="0.3" transform="matrix(1.0163 0 -0 1 156 76.0888)"/><path d="M6.3311 4.20263C6.28404 5.23791 7.0804 6.11391 8.11568 6.16096 9.15095 6.21164 10.027 5.41166 10.074 4.37638 10.1247 3.34111 9.3247 2.46511 8.28943 2.41805 7.25778 2.36737 6.37816 3.16736 6.3311 4.20263Z" fill="#453D3B" transform="matrix(1.0163 0 -0 1 156 76.0888)"/><path d="M6.68222 4.98814C6.6605 5.41166 6.98991 5.77364 7.41343 5.79174L7.86591 5.81346C8.28943 5.83518 8.65141 5.50577 8.66951 5.08225L8.67675 4.9628C8.69847 4.53928 8.36907 4.17729 7.94555 4.15919L7.49307 4.13748C7.06954 4.11576 6.70756 4.44516 6.68946 4.86868L6.68222 4.98814Z" fill="#FFFFFF" transform="matrix(1.0163 0 -0 1 156 76.0888)"/><path d="M8.02518 3.42799C8.0107 3.70309 8.22427 3.93476 8.49938 3.94924L9.16181 3.98182C9.43692 3.9963 9.66859 3.78273 9.68307 3.50762L9.68307 3.50762C9.69755 3.23252 9.48398 3.00085 9.20887 2.98637L8.54644 2.95379C8.27133 2.94293 8.03604 3.15288 8.02518 3.42799L8.02518 3.42799Z" fill="#FFFFFF" transform="matrix(1.0163 0 -0 1 156 76.0888)"/><path d="M1.13301 5.07863C1.12215 5.02434 1.11129 4.97366 1.10767 4.91574 1.08957 4.70941 1.14387 4.56824 1.23436 4.38724 1.30314 4.24245 1.53843 4.27141 1.59997 4.40534 1.65427 4.52118 1.74476 4.61891 1.8063 4.73475 1.87508 4.86144 1.95471 4.98814 2.02711 5.11121 2.12123 5.27048 2.08141 5.51663 1.93661 5.63247 1.75924 5.77364 1.53119 5.84604 1.31038 5.75192 1.05337 5.64695 0.923059 5.27048 1.13301 5.07863Z" fill="#FFE6DE" transform="matrix(1.0163 0 -0 1 156 76.0888)"/><path d="M0.115835 5.17275C0.0977356 5.22343 0.0832563 5.27048 0.0651571 5.32116L0.0542976 5.33926C0.0506777 5.33926 0.0579174 5.34288 0.0361984 5.35374 0.0144794 5.35736 0.00723968 5.35012 0.00361984 5.33926-0.00361984 5.30668 0.00361984 5.31392 0.00361984 5.30668L0.0144794 5.26686 0.0398182 5.19085C0.0760166 5.09311 0.115835 4.99538 0.155653 4.90126 0.242529 4.71303 0.336645 4.52842 0.438 4.34381 0.640711 3.98182 0.876001 3.63432 1.13301 3.30129 1.65065 2.63886 2.2624 2.04159 2.95741 1.54567 3.6488 1.04251 4.4343 0.658811 5.25601 0.387323 6.08133 0.130314 6.95009 0 7.81161 0 9.56361-0.0108595 11.236 0.568315 12.6875 1.37554 13.4224 1.77734 14.1065 2.25154 14.7617 2.74384 15.0875 2.99723 15.4097 3.247 15.7246 3.50762 15.8839 3.63794 16.0395 3.76101 16.2024 3.88409 16.282 3.94562 16.3653 4.00354 16.4522 4.05422 16.539 4.09766 16.6295 4.15919 16.7309 4.13386 16.6368 4.18815 16.5173 4.15557 16.4196 4.13024 16.3182 4.10128 16.2205 4.06508 16.1228 4.02526 15.9309 3.942 15.7463 3.85151 15.5617 3.75739 15.1961 3.57278 14.8413 3.37369 14.4794 3.18908 13.7662 2.80537 13.0459 2.45063 12.3183 2.1357 10.8595 1.50947 9.33918 1.08233 7.81885 1.10405 6.28766 1.11853 4.77819 1.51671 3.43885 2.29498 3.09858 2.48683 2.77642 2.70402 2.46149 2.93569 2.14294 3.16374 1.83526 3.41713 1.54567 3.685 1.24884 3.94924 0.966497 4.23521 0.698629 4.53204 0.561075 4.68045 0.430761 4.83248 0.307686 4.99176 0.242529 5.07139 0.180992 5.15103 0.123075 5.23067L0.0796364 5.2922 0.0615373 5.32116C0.0579174 5.32116 0.0615373 5.33202 0.0579174 5.30668 0.0506777 5.30306 0.0470579 5.2922 0.0289587 5.2922 0.0108595 5.29944 0.0180992 5.29944 0.0180992 5.29944L0.0289587 5.28858C0.0542976 5.25962 0.0868761 5.21619 0.115835 5.17275Z" fill="#453D3B" transform="matrix(1.0163 0 -0 1 156 76.0888)"/><path d="M15.9635 3.98182C15.9635 3.98182 15.8115 4.18453 15.5038 4.5067 15.1925 4.82162 14.74 5.27048 14.121 5.72296 13.5056 6.17182 12.7455 6.65688 11.8586 7.03335 10.9753 7.41343 9.96904 7.68492 8.94462 7.78627 8.43422 7.83695 7.90573 7.82609 7.41705 7.81161 7.1709 7.81161 6.91751 7.78989 6.67136 7.76817 6.42521 7.75369 6.18268 7.72474 5.94377 7.69216 5.70487 7.6632 5.4732 7.63424 5.24877 7.58718 5.02072 7.54736 4.79991 7.50392 4.58634 7.44963 4.37276 7.40257 4.16643 7.35189 3.96734 7.29397 3.76825 7.2433 3.5764 7.18176 3.39541 7.12022 2.66782 6.88493 2.09589 6.59173 1.7158 6.3673 1.3321 6.13925 1.14387 5.96911 1.14387 5.96911 1.14387 5.96911 1.35744 6.11029 1.75562 6.2949 1.95471 6.38901 2.20086 6.49037 2.48683 6.59173 2.77642 6.68946 3.1022 6.79444 3.46419 6.89217 3.64518 6.94285 3.83341 6.98991 4.0325 7.02973 4.22797 7.07678 4.4343 7.1166 4.64787 7.14918 4.85782 7.189 5.07863 7.21796 5.29944 7.2433 5.52387 7.27588 5.75192 7.30121 5.98359 7.31931 6.21526 7.34465 6.45417 7.36275 6.69308 7.36999 6.93199 7.38085 7.1709 7.39895 7.42429 7.39895 7.92745 7.40981 8.40888 7.41343 8.9048 7.36275 9.8894 7.27226 10.8523 7.02249 11.721 6.68584 12.5862 6.3492 13.3644 5.93653 13.9907 5.52749 14.6169 5.11845 15.1201 4.73475 15.4531 4.44878 15.7825 4.15919 15.9635 3.98182 15.9635 3.98182Z" fill="#BD8945" transform="matrix(1.0163 0 -0 1 156 76.0888)"/></g></g></g><g clip-path="url(#clip4)"><g clip-path="url(#clip5)"><g clip-path="url(#clip6)"><path d="M0.117723 5.25709C0.117723 5.25709 3.17853 0.533434 8.04934 0.559186 12.9165 0.588617 16.2238 4.04674 16.2238 4.04674 16.2238 4.04674 12.5155 7.74399 8.15235 7.74032 3.7929 7.73664 0.117723 5.25709 0.117723 5.25709Z" fill="#FFFFFF" transform="matrix(-1 -8.74228e-08 -9.67728e-08 1.10695 144 76.0999)"/><path d="M4.5765 4.07249C4.48453 6.06276 6.08115 7.75871 8.14867 7.85436 10.2162 7.95001 11.9673 6.41593 12.0593 4.42567 12.1513 2.4354 10.5546 0.73945 8.48712 0.6438 6.41961 0.544471 4.66847 2.07855 4.5765 4.07249Z" fill="#BD8945" transform="matrix(-1 -8.74228e-08 -9.67728e-08 1.10695 144 76.0999)"/><path d="M5.64705 4.124C5.56979 5.75373 6.87946 7.13698 8.56438 7.21792 10.253 7.29885 11.6841 6.04068 11.7613 4.41463 11.8386 2.7849 10.5289 1.40164 8.84397 1.32071 7.15538 1.23977 5.7243 2.49427 5.64705 4.124Z" fill="#FFF7E6" fill-opacity="0.3" transform="matrix(-1 -8.74228e-08 -9.67728e-08 1.10695 144 76.0999)"/><path d="M4.8377 4.66111C4.76044 6.34971 6.06276 7.78446 7.75135 7.8654 9.43995 7.94633 10.8747 6.64034 10.9556 4.95174 11.0366 3.26315 9.73058 1.82839 8.04198 1.75114 6.34971 1.66652 4.91495 2.97252 4.8377 4.66111Z" fill="#A9A64F" fill-opacity="0.3" transform="matrix(-1 -8.74228e-08 -9.67728e-08 1.10695 144 76.0999)"/><path d="M6.43432 4.27115C6.3865 5.32331 7.19584 6.21359 8.248 6.26142 9.30015 6.31292 10.1904 5.49989 10.2383 4.44774 10.2898 3.39559 9.47674 2.5053 8.42458 2.45748 7.37611 2.40597 6.48215 3.219 6.43432 4.27115Z" fill="#453D3B" transform="matrix(-1 -8.74228e-08 -9.67728e-08 1.10695 144 76.0999)"/><path d="M6.79117 5.06947C6.7691 5.49989 7.10387 5.86778 7.5343 5.88617L7.99416 5.90824C8.42458 5.93032 8.79247 5.59554 8.81086 5.16512L8.81822 5.04371C8.84029 4.61329 8.50552 4.2454 8.07509 4.22701L7.61523 4.20493C7.18481 4.18286 6.81692 4.51764 6.79853 4.94806L6.79117 5.06947Z" fill="#FFFFFF" transform="matrix(-1 -8.74228e-08 -9.67728e-08 1.10695 144 76.0999)"/><path d="M8.15603 3.48388C8.14131 3.76347 8.35836 3.99892 8.63796 4.01363L9.31119 4.04674C9.59078 4.06146 9.82623 3.84441 9.84094 3.56481L9.84094 3.56481C9.85566 3.28522 9.63861 3.04977 9.35901 3.03506L8.68578 3.00195C8.40619 2.99091 8.16706 3.20428 8.15603 3.48388L8.15603 3.48388Z" fill="#FFFFFF" transform="matrix(-1 -8.74228e-08 -9.67728e-08 1.10695 144 76.0999)"/><path d="M1.15148 5.16144C1.14045 5.10625 1.12941 5.05475 1.12573 4.99589 1.10734 4.78619 1.16252 4.64272 1.25449 4.45878 1.32439 4.31162 1.56351 4.34105 1.62606 4.47717 1.68124 4.59489 1.77321 4.69422 1.83575 4.81195 1.90565 4.94071 1.98658 5.06947 2.06016 5.19455 2.15581 5.35642 2.11534 5.60658 1.96819 5.7243 1.78792 5.86778 1.55616 5.94135 1.33175 5.8457 1.07055 5.73902 0.938109 5.35642 1.15148 5.16144Z" fill="#FFE6DE" transform="matrix(-1 -8.74228e-08 -9.67728e-08 1.10695 144 76.0999)"/><path d="M0.117723 5.25709C0.0993292 5.30859 0.0846137 5.35642 0.0662194 5.40792L0.0551829 5.42631C0.051504 5.42631 0.0588617 5.42999 0.0367886 5.44103 0.0147154 5.44471 0.00735771 5.43735 0.00367886 5.42631-0.00367886 5.3932 0.00367886 5.40056 0.00367886 5.3932L0.0147154 5.35274 0.0404674 5.27548C0.077256 5.17615 0.117723 5.07682 0.158191 4.98117 0.246483 4.78987 0.342134 4.60225 0.445142 4.41463 0.651158 4.04674 0.890284 3.69357 1.15148 3.35512 1.67756 2.68189 2.29929 2.07488 3.00563 1.57087 3.70829 1.05951 4.5066 0.669552 5.3417 0.393638 6.18048 0.132439 7.06341 0 7.93897 0 9.71954-0.0110366 11.4192 0.577581 12.8944 1.39797 13.6412 1.80632 14.3365 2.28825 15.0024 2.78857 15.3335 3.04609 15.6609 3.29994 15.981 3.56481 16.1428 3.69725 16.301 3.82233 16.4666 3.94741 16.5475 4.00995 16.6321 4.06882 16.7204 4.12032 16.8087 4.16447 16.9007 4.22701 17.0037 4.20126 16.908 4.25644 16.7866 4.22333 16.6873 4.19758 16.5843 4.16815 16.485 4.13136 16.3856 4.09089 16.1907 4.00628 16.003 3.9143 15.8154 3.81865 15.4438 3.63103 15.0833 3.42869 14.7154 3.24107 13.9907 2.85111 13.2586 2.49059 12.5192 2.17053 11.0366 1.53408 9.49145 1.09998 7.94633 1.12205 6.39018 1.13677 4.85609 1.54144 3.49491 2.3324 3.1491 2.52737 2.82168 2.74811 2.50162 2.98355 2.17788 3.21532 1.86518 3.47284 1.57087 3.74508 1.26921 4.01363 0.982255 4.30426 0.710019 4.60593 0.570223 4.75676 0.437784 4.91127 0.312703 5.07314 0.246483 5.15408 0.183943 5.23501 0.125081 5.31595L0.0809349 5.37849 0.0625406 5.40792C0.0588617 5.40792 0.0625406 5.41896 0.0588617 5.3932 0.051504 5.38953 0.0478251 5.37849 0.0294309 5.37849 0.0110366 5.38585 0.0183943 5.38585 0.0183943 5.38585L0.0294309 5.37481C0.0551829 5.34538 0.0882926 5.30123 0.117723 5.25709Z" fill="#453D3B" transform="matrix(-1 -8.74228e-08 -9.67728e-08 1.10695 144 76.0999)"/><path d="M16.2238 4.04674C16.2238 4.04674 16.0693 4.25276 15.7565 4.58018 15.4402 4.90024 14.9803 5.35642 14.3512 5.81627 13.7258 6.27245 12.9533 6.76542 12.0519 7.14802 11.1543 7.5343 10.1316 7.81021 9.09046 7.91322 8.57174 7.96473 8.03463 7.95369 7.53798 7.93897 7.28782 7.93897 7.0303 7.9169 6.78013 7.89483 6.52997 7.88011 6.28349 7.85068 6.04068 7.81757 5.79788 7.78814 5.56243 7.75871 5.33434 7.71088 5.10258 7.67042 4.87816 7.62627 4.66111 7.57109 4.44406 7.52326 4.23436 7.47176 4.03203 7.4129 3.82969 7.36139 3.63471 7.29885 3.45077 7.23631 2.71132 6.99719 2.13006 6.6992 1.74378 6.47111 1.35382 6.23934 1.16252 6.06644 1.16252 6.06644 1.16252 6.06644 1.37957 6.20991 1.78425 6.39753 1.98658 6.49318 2.23675 6.59619 2.52737 6.6992 2.82168 6.79853 3.15278 6.90522 3.52067 7.00454 3.70461 7.05605 3.89591 7.10387 4.09825 7.14434 4.29691 7.19217 4.5066 7.23263 4.72365 7.26574 4.93703 7.30621 5.16144 7.33564 5.38585 7.36139 5.61394 7.3945 5.8457 7.42026 6.08115 7.43865 6.3166 7.4644 6.5594 7.4828 6.80221 7.49015 7.04501 7.50119 7.28782 7.51958 7.54534 7.51958 8.0567 7.53062 8.54599 7.5343 9.04999 7.4828 10.0506 7.39082 11.0292 7.13698 11.9121 6.79485 12.7914 6.45272 13.5823 6.03333 14.2188 5.61762 14.8552 5.2019 15.3666 4.81195 15.705 4.52132 16.0398 4.22701 16.2238 4.04674 16.2238 4.04674Z" fill="#BD8945" transform="matrix(-1 -8.74228e-08 -9.67728e-08 1.10695 144 76.0999)"/></g></g></g><g clip-path="url(#clip7)"><g clip-path="url(#clip8)"><g clip-path="url(#clip9)"><path d="M5.9964 14.3507C5.59623 14.4492 5.18067 14.48 4.75587 14.4523 4.33415 14.4184 3.89396 14.3076 3.50303 14.0952 3.3091 13.9967 3.12133 13.8767 2.97665 13.7905 2.90585 13.7505 2.84429 13.7289 2.81351 13.7258 2.79811 13.7258 2.78888 13.7258 2.77657 13.7289 2.77041 13.7289 2.76425 13.732 2.7581 13.7351L2.66883 13.7505C2.39179 13.7874 2.16092 13.7566 1.93005 13.7135 1.69918 13.6674 1.47755 13.5966 1.26208 13.5011 0.831123 13.3134 0.415561 12.9778 0.181616 12.4976 0.0646429 12.2606 0.00615647 11.9959-0.00307823 11.7435-0.0092347 11.488 0.0369388 11.2479 0.101582 11.0232L0.15699 10.8569C0.181616 10.7954 0.206242 10.7276 0.237024 10.6722 0.29551 10.5553 0.363231 10.4506 0.430953 10.3583 0.569473 10.1705 0.707994 10.0166 0.846514 9.86574 1.1174 9.56715 1.37597 9.28395 1.60992 8.97921 2.55186 7.76638 3.10594 6.26728 3.48148 4.73124 3.86318 3.19213 4.04788 1.5976 4.20179 0 4.26335 1.60684 4.20487 3.22291 3.94014 4.82667 3.80162 5.62701 3.61077 6.42427 3.33988 7.20306 3.05669 7.9757 2.6873 8.73295 2.20401 9.41632 1.96699 9.76108 1.69611 10.0812 1.43446 10.3829 1.30517 10.5337 1.18204 10.6815 1.08354 10.82 1.03429 10.8908 0.994269 10.9585 0.966565 11.0201 0.948096 11.0509 0.945018 11.0816 0.929626 11.1124L0.901922 11.2356C0.837279 11.5649 0.852671 11.8635 0.978878 12.1067 1.10509 12.3499 1.35134 12.5438 1.64378 12.6916 1.93005 12.8362 2.30867 12.9163 2.57032 12.904L2.58879 12.904C2.59187 12.904 2.60419 12.904 2.62881 12.9009 2.67191 12.8947 2.715 12.8916 2.76118 12.8947 2.85044 12.8947 2.93971 12.9101 3.02282 12.9347 3.18597 12.984 3.30602 13.0609 3.40145 13.1287 3.5923 13.2641 3.72466 13.3872 3.86934 13.5011 4.44189 13.9382 5.19298 14.1629 5.9964 14.3507Z" fill="#FFA37E" transform="matrix(1 0 -0 1.03723 144.005 87)"/><path d="M5.9964 14.3507C6.47352 14.2338 6.93526 14.1168 7.35082 13.9382 7.56014 13.852 7.75099 13.7412 7.93261 13.6273 8.1173 13.5104 8.27121 13.3718 8.46514 13.2149 8.56672 13.1379 8.67446 13.0486 8.84684 12.9717 8.93303 12.9347 9.03154 12.904 9.14235 12.8947 9.19468 12.8886 9.25009 12.8886 9.30242 12.8916L9.41324 12.9009C9.55176 12.9101 9.77031 12.8855 9.95808 12.8301 10.3429 12.7254 10.7061 12.5253 10.9093 12.2575 11.1155 11.9959 11.174 11.6573 11.097 11.2633 11.017 10.8723 10.8261 10.4968 10.5676 10.1151 10.3059 9.73953 10.0073 9.34859 9.75492 8.91456 9.50558 8.48361 9.33628 7.99109 9.31781 7.50473 9.51482 7.95108 9.77647 8.33585 10.0904 8.67446 10.3983 9.01922 10.7584 9.32705 11.094 9.69951 11.2602 9.88728 11.4264 10.0843 11.5711 10.3121 11.7065 10.5429 11.8327 10.7923 11.9066 11.0632 11.9805 11.3341 12.0205 11.6326 11.9805 11.9405 11.9435 12.2452 11.8204 12.5561 11.6296 12.8024 11.2479 13.3041 10.7092 13.5627 10.1736 13.6951 9.89652 13.7535 9.63179 13.7966 9.29626 13.7474L9.2347 13.7412 9.22239 13.7382C9.21623 13.7382 9.21007 13.7351 9.20392 13.7351 9.1916 13.732 9.17621 13.7351 9.15159 13.7412 9.09926 13.7535 9.00999 13.7997 8.91456 13.8582 8.72063 13.9783 8.48361 14.1168 8.24043 14.2153 7.99725 14.323 7.73868 14.3846 7.48626 14.4246 6.97528 14.4985 6.47352 14.4646 5.9964 14.3507Z" fill="#FFA37E" transform="matrix(1 0 -0 1.03723 144.005 87)"/></g></g></g></g></svg>