<svg width="23" height="23" xmlns="http://www.w3.org/2000/svg" xmlns:xlink="http://www.w3.org/1999/xlink" overflow="hidden"><defs><clipPath id="clip0"><path d="M161 126 184 126 184 149 161 149Z" fill-rule="evenodd" clip-rule="evenodd"/></clipPath></defs><g clip-path="url(#clip0)" transform="translate(-161 -126)"><path d="M161 138C161 131.925 165.925 127 172 127 178.075 127 183 131.925 183 138 183 144.075 178.075 149 172 149 165.925 149 161 144.075 161 138Z" fill="#FE8B8B" fill-rule="evenodd" fill-opacity="0.2"/><path d="M164 138C164 133.582 167.582 130 172 130 176.418 130 180 133.582 180 138 180 142.418 176.418 146 172 146 167.582 146 164 142.418 164 138Z" fill="#FE8B8B" fill-rule="evenodd" fill-opacity="0.4"/><path d="M166 138C166 134.686 168.686 132 172 132 175.314 132 178 134.686 178 138 178 141.314 175.314 144 172 144 168.686 144 166 141.314 166 138Z" fill="#FE8B8B" fill-rule="evenodd" fill-opacity="0.6"/><path d="M169 138C169 136.343 170.343 135 172 135 173.657 135 175 136.343 175 138 175 139.657 173.657 141 172 141 170.343 141 169 139.657 169 138Z" fill="#FE8B8B" fill-rule="evenodd" fill-opacity="0.701961"/></g></svg>