<svg width="16.7" height="26.12" viewBox="0 0 16.7 26.12" xmlns="http://www.w3.org/2000/svg" xmlns:xlink="http://www.w3.org/1999/xlink" overflow="hidden"><defs></defs><g><path d="M12.1 12.22C12.09 12.24 12.1 12.26 12.1 12.28 12.1 12.4 12.11 12.53 12.11 12.66 12.13 12.93 12.12 13.21 12.1 13.52 12.09 13.82 12.05 14.14 12.02 14.46 11.94 15.11 11.83 15.79 11.72 16.47 11.71 16.55 11.7 16.63 11.68 16.71 11.68 16.74 11.69 16.76 11.69 16.8 11.71 16.95 11.75 17.17 11.81 17.43 11.87 17.68 11.95 17.98 12.1 18.26 12.25 18.55 12.47 18.81 12.75 19.02 12.9 19.12 13.05 19.22 13.19 19.32 13.32 19.41 13.45 19.49 13.57 19.58 13.58 19.57 13.59 19.56 13.61 19.54 13.66 19.5 13.73 19.44 13.82 19.39 14 19.28 14.26 19.18 14.53 19.12 14.8 19.06 15.08 19.04 15.28 19.07 15.38 19.08 15.47 19.11 15.52 19.13 15.57 19.15 15.61 19.17 15.61 19.17 15.61 19.17 15.58 19.16 15.52 19.13 15.46 19.11 15.38 19.09 15.28 19.08 15.08 19.06 14.8 19.09 14.54 19.16 14.28 19.23 14.02 19.34 13.86 19.45 13.77 19.51 13.71 19.56 13.67 19.6 13.66 19.61 13.65 19.62 13.64 19.63 13.77 19.73 13.89 19.82 14.01 19.92 14.13 20.02 14.24 20.12 14.34 20.21 14.55 20.38 14.7 20.55 14.81 20.66 14.92 20.77 14.99 20.83 14.99 20.83 14.99 20.83 14.92 20.77 14.8 20.67 14.68 20.57 14.52 20.41 14.3 20.26 14.19 20.18 14.08 20.09 13.96 19.99 13.83 19.91 13.7 19.81 13.56 19.72 13.43 19.62 13.27 19.54 13.12 19.45 12.97 19.36 12.82 19.27 12.66 19.18 12.35 18.98 12.09 18.7 11.91 18.39 11.74 18.11 11.64 17.83 11.57 17.58 11.53 17.89 11.5 18.19 11.48 18.48 11.46 18.8 11.46 19.11 11.46 19.4 11.48 19.69 11.48 19.97 11.54 20.22 11.56 20.35 11.58 20.47 11.6 20.58 11.63 20.69 11.66 20.8 11.69 20.9 11.75 21.1 11.8 21.28 11.87 21.41 12 21.68 12.07 21.84 12.07 21.84 12.07 21.84 11.99 21.69 11.85 21.42 11.77 21.29 11.71 21.12 11.64 20.92 11.61 20.82 11.56 20.71 11.53 20.6 11.5 20.49 11.48 20.36 11.45 20.24 11.38 19.99 11.36 19.71 11.32 19.41 11.3 19.11 11.28 18.8 11.28 18.47 11.28 18.14 11.29 17.81 11.32 17.47 11.33 17.24 11.36 17 11.38 16.76 11.36 16.67 11.35 16.62 11.35 16.62 11.35 16.62 11.4 16.49 11.41 16.44 11.48 15.75 11.55 15.07 11.58 14.44 11.58 14.31 11.59 14.18 11.59 14.06 11.44 14.2 11.26 14.38 11.06 14.59 10.8 14.89 10.51 15.25 10.3 15.69 10.19 15.91 10.11 16.14 10.06 16.39 10.01 16.64 9.97 16.92 9.92 17.19 9.86 17.46 9.79 17.75 9.65 18 9.62 18.05 9.58 18.1 9.55 18.15 9.56 18.18 9.58 18.21 9.6 18.25 9.63 18.3 9.66 18.36 9.69 18.45 9.72 18.53 9.77 18.62 9.79 18.72 9.86 18.92 9.89 19.16 9.91 19.42 9.92 19.68 9.92 19.94 9.9 20.21 9.86 20.74 9.82 21.26 9.88 21.66 9.91 21.86 9.94 22.02 9.98 22.13 10.01 22.24 10.03 22.3 10.03 22.3 10.03 22.3 10.01 22.24 9.96 22.13 9.91 22.02 9.86 21.86 9.82 21.67 9.73 21.28 9.73 20.74 9.73 20.21 9.73 20.19 9.73 20.16 9.73 20.14 9.67 20.22 9.6 20.31 9.52 20.43 9.42 20.57 9.31 20.73 9.21 20.91 9.1 21.08 9 21.28 8.89 21.48 8.8 21.68 8.69 21.88 8.62 22.08 8.54 22.27 8.48 22.46 8.44 22.62 8.39 22.78 8.38 22.92 8.36 23.02 8.34 23.12 8.34 23.17 8.34 23.17 8.34 23.17 8.35 23.11 8.36 23.02 8.38 22.92 8.38 22.78 8.43 22.62 8.47 22.46 8.52 22.27 8.6 22.07 8.66 21.87 8.77 21.67 8.86 21.46 8.97 21.26 9.06 21.06 9.17 20.88 9.27 20.7 9.38 20.53 9.47 20.39 9.58 20.22 9.67 20.09 9.73 20.01 9.72 19.81 9.71 19.62 9.69 19.44 9.65 19.2 9.6 18.99 9.53 18.81 9.5 18.72 9.46 18.65 9.43 18.58 9.4 18.52 9.37 18.47 9.34 18.43 9.28 18.51 9.21 18.59 9.15 18.65 8.78 19.03 8.38 19.3 8.12 19.61 7.99 19.77 7.89 19.92 7.82 20.07 7.75 20.22 7.71 20.36 7.69 20.48 7.66 20.6 7.66 20.69 7.65 20.76 7.64 20.82 7.64 20.86 7.64 20.86 7.64 20.86 7.64 20.83 7.64 20.76 7.64 20.7 7.64 20.6 7.66 20.48 7.67 20.36 7.7 20.21 7.76 20.05 7.81 19.89 7.91 19.72 8.03 19.54 8.28 19.2 8.66 18.89 8.98 18.5 9.14 18.31 9.28 18.1 9.39 17.86 9.49 17.63 9.54 17.37 9.57 17.11 9.6 16.84 9.61 16.57 9.65 16.29 9.67 16.16 9.69 16.02 9.73 15.89 9.71 15.87 9.68 15.84 9.64 15.81 9.6 15.79 9.57 15.75 9.52 15.73 9.47 15.7 9.41 15.68 9.34 15.68 9.2 15.67 9.03 15.75 8.85 15.87 8.67 16 8.5 16.17 8.3 16.32 8.25 16.36 8.2 16.4 8.15 16.43 8.13 16.44 8.11 16.45 8.09 16.46 8.1 16.48 8.11 16.49 8.12 16.52 8.15 16.59 8.2 16.72 8.22 16.86 8.24 17.01 8.23 17.18 8.2 17.35 8.17 17.53 8.1 17.7 8.03 17.88 7.88 18.23 7.68 18.55 7.53 18.79 7.38 19.03 7.27 19.19 7.27 19.19 7.27 19.19 7.37 19.03 7.51 18.79 7.66 18.55 7.85 18.22 7.98 17.87 8.05 17.7 8.11 17.52 8.13 17.34 8.16 17.17 8.16 17.01 8.14 16.87 8.13 16.8 8.12 16.74 8.1 16.69 8.08 16.64 8.07 16.59 8.05 16.56 8.04 16.54 8.03 16.52 8.02 16.51 8.01 16.51 7.99 16.52 7.98 16.53 7.87 16.58 7.76 16.62 7.65 16.67 7.44 16.75 7.24 16.83 7.1 16.93 6.95 17.03 6.86 17.15 6.82 17.25 6.78 17.35 6.78 17.41 6.78 17.41 6.78 17.41 6.78 17.35 6.81 17.25 6.84 17.15 6.93 17.01 7.08 16.9 7.23 16.78 7.42 16.69 7.62 16.59 7.72 16.54 7.83 16.49 7.93 16.43 7.98 16.4 8.03 16.37 8.07 16.34 8.12 16.3 8.16 16.27 8.2 16.23 8.37 16.07 8.53 15.89 8.71 15.73 8.89 15.58 9.1 15.44 9.34 15.43 9.45 15.42 9.56 15.45 9.64 15.48 9.72 15.5 9.79 15.55 9.84 15.59 9.85 15.56 9.86 15.53 9.87 15.5 10.08 14.99 10.36 14.57 10.62 14.23 10.88 13.89 11.13 13.63 11.3 13.45 11.48 13.28 11.58 13.18 11.58 13.18 11.57 13.01 11.57 12.85 11.55 12.71 11.54 12.59 11.53 12.47 11.52 12.36 11.5 12.25 11.48 12.15 11.46 12.06 11.43 11.88 11.4 11.76 11.3 11.61 11.16 11.4 11.02 11.18 10.78 11.06 10.53 10.93 10.23 10.92 9.95 10.9 9.95 10.81 9.97 10.72 10.01 10.63 10.11 10.43 10.61 9.76 12.86 9.41 13.68 9.28 13.22 6.32 12.4 6.45 12.14 6.49 11.89 6.54 11.65 6.59 11.5 6.71 11.33 6.82 11.14 6.89 9.02 7.79 7.7 8.88 7.44 9.97 7.29 10.6 7.49 11.21 7.69 11.62L7.24 11.88C7.02 11.51 6.66 10.75 6.85 9.97 7.11 8.89 8.42 7.79 10.55 6.89 11.63 6.43 10.62 2.85 9.84 2.8 9.7 2.25 9.59 1.48 9.75 0.61 9.83 0.14 8.12-0.16 8.04 0.31 7.83 1.49 7.98 2.53 8.18 3.28 8.09 3.32 8 3.37 7.91 3.41 7.68 2.66 7.5 1.57 7.72 0.3 7.73 0.26 7.74 0.21 7.75 0.17 7.62-0.21 6.01 0.09 6.07 0.56 6.16 1.26 6.5 2.95 6.73 4.06 6.72 4.06 6.72 4.07 6.71 4.07 6.22 3.12 5.48 1.84 4.76 1.09 4.43 0.75 3.18 1.96 3.51 2.3 4.11 2.92 4.8 4.15 5.27 5.08 3.93 6.2 3.08 7.5 2.73 8.96 2.3 10.74 2.74 12.3 3.24 13.37L2.96 13.44C2.44 12.37 1.98 10.78 2.42 8.96 2.66 7.92 3.17 6.97 3.92 6.1 4.11 5.49 1.73 4.11 1.26 4.79 0.81 5.43 0.26 6.72 0.56 10.52 0.71 12.42 1 14.09 1.02 14.16 1.04 14.27 1.07 14.37 1.12 14.47 0.87 14.75 0.67 15.06 0.57 15.37 0.56 15.41 0.55 15.46 0.53 15.5 0.56 15.51 0.59 15.51 0.63 15.52 0.83 15.58 1.07 15.66 1.3 15.8 1.31 15.81 1.33 15.82 1.34 15.83 1.35 15.8 1.36 15.76 1.39 15.73 1.41 15.69 1.45 15.65 1.49 15.62 1.58 15.55 1.71 15.54 1.82 15.55 1.94 15.56 2.06 15.58 2.17 15.6 2.2 15.6 2.22 15.6 2.26 15.6 2.29 15.6 2.31 15.6 2.34 15.59 2.4 15.58 2.45 15.57 2.51 15.56 2.62 15.54 2.73 15.52 2.82 15.52 2.91 15.52 2.99 15.55 3.03 15.58 3.07 15.61 3.09 15.64 3.09 15.64 3.09 15.64 3.07 15.62 3.02 15.59 2.98 15.56 2.9 15.54 2.82 15.55 2.73 15.55 2.63 15.58 2.52 15.61 2.47 15.62 2.41 15.64 2.35 15.65 2.34 15.65 2.34 15.65 2.33 15.65 2.33 15.66 2.33 15.67 2.33 15.68 2.33 15.7 2.34 15.72 2.35 15.75 2.36 15.77 2.37 15.8 2.39 15.83 2.42 15.89 2.47 15.95 2.53 16.01 2.59 16.07 2.67 16.12 2.75 16.17 2.91 16.27 3.08 16.34 3.21 16.39 3.34 16.44 3.43 16.48 3.43 16.48 3.43 16.48 3.34 16.45 3.21 16.4 3.08 16.35 2.91 16.28 2.74 16.19 2.66 16.14 2.58 16.09 2.52 16.03 2.45 16 2.39 15.94 2.36 15.88 2.32 15.82 2.31 15.76 2.3 15.72 2.3 15.71 2.3 15.7 2.29 15.69 2.28 15.69 2.27 15.69 2.26 15.69 2.23 15.69 2.2 15.69 2.17 15.69 2.05 15.69 1.93 15.67 1.82 15.67 1.71 15.67 1.62 15.69 1.57 15.74 1.54 15.76 1.53 15.79 1.51 15.81 1.49 15.83 1.49 15.86 1.48 15.88 1.48 15.91 1.47 15.93 1.47 15.94 1.52 15.98 1.57 16.03 1.62 16.08 1.72 16.18 1.8 16.29 1.89 16.38 1.98 16.48 2.08 16.56 2.18 16.62 2.29 16.68 2.41 16.72 2.53 16.75 2.77 16.8 3.01 16.81 3.21 16.88 3.31 16.91 3.4 16.95 3.47 17 3.54 17.05 3.6 17.09 3.64 17.14 3.68 17.18 3.71 17.22 3.73 17.25 3.75 17.27 3.76 17.29 3.76 17.29 3.76 17.29 3.75 17.28 3.73 17.25 3.71 17.23 3.68 17.19 3.63 17.15 3.59 17.11 3.53 17.07 3.46 17.03 3.39 16.99 3.3 16.96 3.21 16.93 3.02 16.89 2.78 16.89 2.52 16.86 2.47 16.85 2.43 16.84 2.38 16.83 2.38 16.86 2.38 16.89 2.39 16.92 2.4 16.96 2.4 17 2.42 17.04 2.44 17.13 2.49 17.23 2.54 17.34 2.58 17.42 2.64 17.5 2.69 17.58 2.74 17.59 2.81 17.62 2.9 17.65 2.98 17.68 3.07 17.71 3.17 17.75 3.27 17.79 3.37 17.84 3.46 17.89 3.56 17.94 3.66 17.99 3.74 18.05 3.83 18.1 3.9 18.16 3.97 18.22 4.04 18.27 4.08 18.32 4.12 18.36 4.15 18.39 4.17 18.41 4.17 18.41 4.17 18.41 4.15 18.39 4.12 18.36 4.08 18.33 4.04 18.27 3.97 18.23 3.9 18.18 3.83 18.12 3.74 18.07 3.65 18.01 3.55 17.97 3.46 17.91 3.36 17.87 3.26 17.82 3.16 17.78 3.06 17.74 2.97 17.71 2.9 17.68 2.83 17.66 2.78 17.64 2.73 17.63 2.74 17.64 2.74 17.65 2.75 17.66 2.91 17.87 3.06 18.08 3.14 18.27 3.18 18.36 3.21 18.44 3.22 18.49 3.24 18.55 3.24 18.58 3.24 18.58 3.24 18.58 3.23 18.55 3.21 18.5 3.19 18.45 3.16 18.37 3.11 18.29 3.02 18.12 2.85 17.92 2.67 17.72 2.58 17.62 2.5 17.52 2.43 17.41 2.36 17.3 2.3 17.2 2.27 17.1 2.25 17.05 2.24 17 2.23 16.96 2.22 16.92 2.21 16.88 2.21 16.85 2.21 16.83 2.2 16.81 2.2 16.79 2.17 16.78 2.14 16.77 2.12 16.76 2 16.68 1.88 16.59 1.78 16.5 1.68 16.41 1.58 16.31 1.49 16.23 1.39 16.15 1.29 16.08 1.19 16.03 0.98 15.92 0.75 15.86 0.56 15.82 0.52 15.81 0.48 15.81 0.44 15.8 0.42 15.87 0.4 15.93 0.39 16 0.58 16.21 0.77 16.43 0.98 16.65 1 16.67 1.06 16.71 1.06 16.71 1.06 16.71 1.07 16.73 1.09 16.77 1.17 16.86 1.25 16.94 1.32 17.03 1.43 17.16 1.53 17.29 1.63 17.41 1.73 17.54 1.82 17.67 1.89 17.79 1.96 17.92 2.04 18.04 2.08 18.16 2.11 18.22 2.13 18.27 2.15 18.33 2.17 18.39 2.18 18.44 2.2 18.49 2.23 18.59 2.26 18.68 2.27 18.75 2.29 18.9 2.31 18.98 2.31 18.98 2.31 18.98 2.29 18.9 2.26 18.75 2.25 18.68 2.22 18.59 2.18 18.5 2.16 18.45 2.14 18.4 2.12 18.35 2.09 18.3 2.07 18.25 2.04 18.19 1.99 18.08 1.9 17.96 1.83 17.84 1.75 17.72 1.65 17.6 1.55 17.48 1.45 17.37 1.35 17.26 1.25 17.15 1.29 17.27 1.34 17.41 1.35 17.57 1.37 17.74 1.35 17.93 1.29 18.1 1.26 18.19 1.22 18.26 1.19 18.35 1.16 18.43 1.12 18.51 1.1 18.59 1.05 18.66 1.03 18.73 1 18.8 0.98 18.87 0.96 18.94 0.94 19.01 0.9 19.14 0.88 19.25 0.87 19.32 0.85 19.4 0.84 19.44 0.84 19.44 0.84 19.44 0.85 19.4 0.86 19.32 0.87 19.24 0.88 19.13 0.92 19 0.93 18.94 0.95 18.86 0.96 18.79 0.98 18.72 1 18.64 1.02 18.57 1.01 18.57 1.01 18.57 1 18.57 0.97 18.57 0.93 18.57 0.88 18.57 0.78 18.58 0.65 18.61 0.52 18.66 0.4 18.71 0.28 18.78 0.2 18.85 0.16 18.88 0.13 18.92 0.12 18.94 0.11 18.97 0.1 18.98 0.1 18.98 0.1 18.98 0.11 18.97 0.12 18.94 0.14 18.91 0.16 18.88 0.2 18.84 0.27 18.77 0.39 18.69 0.51 18.64 0.63 18.59 0.77 18.55 0.87 18.54 0.92 18.53 0.97 18.54 1 18.54 1.01 18.54 1.02 18.54 1.03 18.54 1.05 18.47 1.08 18.4 1.1 18.33 1.13 18.25 1.16 18.17 1.19 18.08 1.24 17.91 1.25 17.74 1.22 17.59 1.19 17.43 1.14 17.29 1.09 17.17 1.04 17.05 0.99 16.95 0.95 16.89 0.94 16.88 0.94 16.86 0.93 16.85 0.9 16.82 0.87 16.79 0.85 16.77 0.67 16.6 0.49 16.42 0.32 16.25-2.17 26.29 10.37 26.36 14.88 26.07 15.75 26.01 16.58 25.23 16.69 24.37 16.71 24.23 16.67 24.06 16.67 23.91 16.66 23.76 16.65 23.61 16.64 23.46 16.62 23.16 16.61 22.86 16.59 22.56 16.55 21.97 16.51 21.39 16.46 20.8 16.41 20.25 16.34 19.7 16.26 19.15 16.19 18.65 16.09 18.15 15.98 17.66 15.88 17.22 15.75 16.78 15.6 16.35 15.46 15.97 15.3 15.6 15.11 15.24 14.94 14.92 14.74 14.61 14.52 14.32 14.31 14.05 14.08 13.8 13.84 13.56 13.6 13.33 13.35 13.12 13.09 12.92 12.83 12.73 12.57 12.54 12.3 12.36 12.22 12.3 12.16 12.27 12.1 12.22Z" fill="#F7A59F"/></g></svg>