<svg width="639.56" height="161.46" viewBox="0 0 639.56 161.46" xmlns="http://www.w3.org/2000/svg" xmlns:xlink="http://www.w3.org/1999/xlink" overflow="hidden"><defs></defs><g><rect x="210.7" y="17.85" width="327.12" height="125.76" fill="#D3D3D3"/><rect x="612.49" y="17.85" width="27.07" height="125.76" fill="#EDEDED"/><path d="M210.7 17.85C210.7 17.85 159.4 72.65 210.7 143.61L210.7 17.85Z" fill="#EDEDED"/><rect x="285.83" y="55.59" width="327.12" height="50.28" fill="#BABABA"/><path d="M188.62 84.35 188.62 77.11 18.33 77.11 0 84.35Z" fill="#D8D8D8"/><rect x="144.67" y="63.92" width="46.81" height="33.62" fill="#5BA6DB"/><rect x="264.1" y="28.86" width="29.39" height="101.85" fill="#4C4C4D"/><rect x="524.29" y="0" width="27.07" height="161.46" fill="#EDEDED"/><rect x="243.56" y="130.71" width="5.43" height="12.9" fill="#4C4C4D"/><rect x="261.51" y="130.71" width="5.43" height="12.9" fill="#4C4C4D"/><rect x="279.47" y="130.71" width="5.43" height="12.9" fill="#4C4C4D"/><rect x="297.42" y="130.71" width="5.43" height="12.9" fill="#4C4C4D"/><rect x="315.37" y="118.54" width="5.43" height="24.19" fill="#4C4C4D"/><rect x="333.32" y="130.71" width="5.43" height="12.9" fill="#4C4C4D"/><rect x="351.27" y="130.71" width="5.43" height="12.9" fill="#4C4C4D"/><rect x="369.22" y="130.71" width="5.43" height="12.9" fill="#4C4C4D"/><rect x="387.17" y="130.71" width="5.43" height="12.9" fill="#4C4C4D"/><rect x="405.13" y="118.54" width="5.43" height="24.19" fill="#4C4C4D"/><rect x="423.08" y="130.71" width="5.43" height="12.9" fill="#4C4C4D"/><rect x="441.03" y="130.71" width="5.43" height="12.9" fill="#4C4C4D"/><rect x="458.98" y="130.71" width="5.43" height="12.9" fill="#4C4C4D"/><rect x="476.93" y="130.71" width="5.43" height="12.9" fill="#4C4C4D"/><rect x="494.88" y="118.54" width="5.43" height="24.19" fill="#4C4C4D"/></g></svg>