<svg width="18" height="79" xmlns="http://www.w3.org/2000/svg" xmlns:xlink="http://www.w3.org/1999/xlink" overflow="hidden"><defs><clipPath id="clip0"><path d="M145 417 163 417 163 496 145 496Z" fill-rule="evenodd" clip-rule="evenodd"/></clipPath><clipPath id="clip1"><path d="M149.267 450.126 162.372 453.006 160.029 463.668 146.924 460.788Z" fill-rule="evenodd" clip-rule="evenodd"/></clipPath><clipPath id="clip2"><path d="M149.267 450.126 162.372 453.006 160.029 463.668 146.924 460.788Z" fill-rule="evenodd" clip-rule="evenodd"/></clipPath><clipPath id="clip3"><path d="M149.267 450.126 162.372 453.006 160.029 463.668 146.924 460.788Z" fill-rule="evenodd" clip-rule="evenodd"/></clipPath><radialGradient cx="7.0886" cy="5.0023" r="2.1956" gradientUnits="userSpaceOnUse" spreadMethod="pad" id="fill4" gradientTransform="scale(1.24784 1.24784)"><stop offset="0" stop-color="#F6F969"/><stop offset="0.4698" stop-color="#F6F969"/><stop offset="0.4792" stop-color="#F7EE61"/><stop offset="0.5107" stop-color="#F8CF48"/><stop offset="0.5464" stop-color="#F9B334"/><stop offset="0.5866" stop-color="#FA9D23"/><stop offset="0.6337" stop-color="#FB8C16"/><stop offset="0.6918" stop-color="#FC810D"/><stop offset="0.7734" stop-color="#FC7A07"/><stop offset="1" stop-color="#FC7806"/></radialGradient><radialGradient cx="5.5435" cy="5.5834" r="2.1956" gradientUnits="userSpaceOnUse" spreadMethod="pad" id="fill5" gradientTransform="scale(1.24784 1.24784)"><stop offset="0" stop-color="#F6F969"/><stop offset="0.4698" stop-color="#F6F969"/><stop offset="0.4792" stop-color="#F7EE61"/><stop offset="0.5107" stop-color="#F8CF48"/><stop offset="0.5464" stop-color="#F9B334"/><stop offset="0.5866" stop-color="#FA9D23"/><stop offset="0.6337" stop-color="#FB8C16"/><stop offset="0.6918" stop-color="#FC810D"/><stop offset="0.7734" stop-color="#FC7A07"/><stop offset="1" stop-color="#FC7806"/></radialGradient><radialGradient cx="8.5647" cy="2.2363" r="2.1956" gradientUnits="userSpaceOnUse" spreadMethod="pad" id="fill6" gradientTransform="scale(1.24784 1.24784)"><stop offset="0" stop-color="#F6F969"/><stop offset="0.4698" stop-color="#F6F969"/><stop offset="0.4792" stop-color="#F7EE61"/><stop offset="0.5107" stop-color="#F8CF48"/><stop offset="0.5464" stop-color="#F9B334"/><stop offset="0.5866" stop-color="#FA9D23"/><stop offset="0.6337" stop-color="#FB8C16"/><stop offset="0.6918" stop-color="#FC810D"/><stop offset="0.7734" stop-color="#FC7A07"/><stop offset="1" stop-color="#FC7806"/></radialGradient><radialGradient cx="2.1541" cy="5.4191" r="2.1956" gradientUnits="userSpaceOnUse" spreadMethod="pad" id="fill7" gradientTransform="scale(1.24784 1.24784)"><stop offset="0" stop-color="#F6F969"/><stop offset="0.4698" stop-color="#F6F969"/><stop offset="0.4792" stop-color="#F7EE61"/><stop offset="0.5107" stop-color="#F8CF48"/><stop offset="0.5464" stop-color="#F9B334"/><stop offset="0.5866" stop-color="#FA9D23"/><stop offset="0.6337" stop-color="#FB8C16"/><stop offset="0.6918" stop-color="#FC810D"/><stop offset="0.7734" stop-color="#FC7A07"/><stop offset="1" stop-color="#FC7806"/></radialGradient></defs><g clip-path="url(#clip0)" transform="translate(-145 -417)"><path d="M150.102 455.703C151.558 455.487 152.133 452.06 153.485 451.859 154.838 451.658 155.678 454.861 157.121 454.642 159.5 454.285 161.298 450.494 161.124 446.184 160.981 442.416 158.775 441.68 157.405 439.072 153.588 431.786 155.546 417.407 155.546 417.407L148.794 418.43C148.794 418.43 151.819 432.048 148.614 440.412 147.455 443.403 145.333 444.795 145.477 448.563 145.651 452.873 147.72 456.078 150.102 455.703Z" fill="#F2F2F2" fill-rule="evenodd"/><path d="M146 450.5C146 446.358 149.358 443 153.5 443 157.642 443 161 446.358 161 450.5 161 454.642 157.642 458 153.5 458 149.358 458 146 454.642 146 450.5Z" fill="#F2F2F2" fill-rule="evenodd"/><path d="M159.75 458.383C158.96 458.324 158.226 460.163 157.377 460.37 156.653 460.548 156.189 459.32 155.642 459.496 155.268 459.617 155.036 460.579 154.666 460.684 154.299 460.772 154.081 459.935 153.72 459.99 153.177 460.08 152.673 461.564 151.95 461.742 151.1 461.949 150.408 460.47 149.622 460.932 148.773 461.433 148.598 464.519 148.568 466.644 148.516 470.375 150.177 470.994 151.111 473.539 153.711 480.6 151.602 494.951 151.602 494.951L156.82 493.644C156.82 493.644 155.089 480.265 157.905 471.83 158.911 468.811 160.611 467.323 160.66 463.608 160.68 461.482 160.592 458.451 159.75 458.383Z" fill="#F2F2F2" fill-rule="evenodd"/><g clip-path="url(#clip1)"><g clip-path="url(#clip2)"><g clip-path="url(#clip3)"><path d="M11.4302 5.47803C11.842 6.96296 11.0185 8.51029 9.58343 8.93455 8.16089 9.34634 6.67596 8.49781 6.26417 7.01288 5.85238 5.52794 6.67596 3.98062 8.0985 3.55635 9.53352 3.13209 11.0185 3.9931 11.4302 5.47803Z" fill="url(#fill4)" transform="matrix(0.976698 0.214619 -0.240094 1.09263 149.287 450.131)"/><path d="M9.49608 6.20178C9.90787 7.68671 9.0843 9.23404 7.64928 9.6583 6.22673 10.0701 4.7418 9.22156 4.33001 7.73662 3.9307 6.25169 4.75428 4.71685 6.17682 4.2801 7.59936 3.85583 9.09677 4.71685 9.49608 6.20178Z" fill="url(#fill5)" transform="matrix(0.976698 0.214619 -0.240094 1.09263 149.287 450.131)"/><path d="M13.2646 2.02151C13.6764 3.50644 12.8528 5.05376 11.4178 5.47803 10.0077 5.9023 8.51029 5.04128 8.0985 3.55635 7.69919 2.0839 8.52277 0.536572 9.94531 0.112306 11.3678-0.311961 12.8653 0.536572 13.2646 2.02151Z" fill="url(#fill6)" transform="matrix(0.976698 0.214619 -0.240094 1.09263 149.287 450.131)"/><path d="M5.2659 5.98965C5.67768 7.47458 4.85411 9.0219 3.41909 9.44617 2.00903 9.87044 0.511616 9.00942 0.0998274 7.53697-0.311961 6.05204 0.511616 4.50471 1.94663 4.08045 3.36918 3.65618 4.86659 4.51719 5.2659 5.98965Z" fill="url(#fill7)" transform="matrix(0.976698 0.214619 -0.240094 1.09263 149.287 450.131)"/></g></g></g></g></svg>