<svg width="109" height="90" xmlns="http://www.w3.org/2000/svg" xmlns:xlink="http://www.w3.org/1999/xlink" overflow="hidden"><defs><clipPath id="clip0"><path d="M93 172 202 172 202 262 93 262Z" fill-rule="evenodd" clip-rule="evenodd"/></clipPath></defs><g clip-path="url(#clip0)" transform="translate(-93 -172)"><path d="M133.422 256.224C137.605 253.986 139.371 248.785 139.623 243.993 139.875 239.202 138.951 234.392 139.455 229.619 140.065 223.746 142.755 218.208 142.986 212.317 143.26 204.654 139.329 197.383 139.098 189.72 138.951 185.152 140.065 180.212 137.731 176.297 135.167 171.99 129.008 170.908 124.552 173.108 121.398 174.674 119.002 177.471 116.858 180.305 101.24 200.851 93.021 227.102 94.0932 253.036 94.1982 255.385 94.5766 258.107 96.5525 259.337 97.7296 260.064 99.2011 260.064 100.588 259.934 106.747 259.375 112.696 256.839 118.876 256.895 123.774 256.951 129.071 258.573 133.422 256.224Z" fill="#DD2B3F" fill-rule="evenodd"/><path d="M160.974 256.779C156.787 254.469 155.065 249.211 154.896 244.385 154.725 239.559 155.724 234.714 155.299 229.907 154.768 223.992 152.133 218.377 152.005 212.425 151.835 204.688 155.937 197.44 156.277 189.722 156.489 185.14 155.448 180.126 157.85 176.22 160.506 171.92 166.755 170.906 171.239 173.178 174.405 174.793 176.786 177.647 178.911 180.521 194.404 201.421 202.31 227.954 200.823 254.056 200.695 256.422 200.27 259.164 198.251 260.365 197.04 261.079 195.552 261.06 194.17 260.929 187.943 260.29 181.971 257.661 175.723 257.643 170.707 257.643 165.352 259.201 160.974 256.779Z" fill="#DD2B3F" fill-rule="evenodd"/><path d="M152.58 218.145C152.58 218.145 151.923 215.659 152.008 215 153.957 217.618 156.33 221.723 157.411 224.83 158.407 227.749 159 230.818 160.123 233.699 161.882 238.2 164.996 242.135 168.916 244.847 171.501 246.636 174.383 247.879 177.265 249.122 180.506 250.515 183.77 251.927 187.011 253.321 189.724 254.488 192.478 255.675 195.381 256.145 196.907 256.39 198.665 256.597 200 257.256 199.64 258.556 199.004 259.686 197.902 260.364 196.695 261.079 195.211 261.06 193.834 260.929 187.626 260.288 181.672 257.652 175.442 257.633 170.463 257.614 165.123 259.177 160.759 256.767 156.584 254.451 154.868 249.178 154.699 244.339 154.529 239.499 155.525 234.641 155.101 229.82 154.741 225.828 153.448 222.005 152.58 218.145Z" fill="#900002" fill-rule="evenodd"/><path d="M181.813 241.703C180.383 240.618 178.911 239.384 178.323 237.701 182.822 239.964 187.069 242.694 191 245.836 190.685 242.413 187.3 240.169 184.209 238.598 181.119 237.009 177.629 235.194 176.725 231.865 178.197 233.137 179.963 234.072 181.855 234.559 180.236 233.25 178.512 231.753 178.154 229.715 180.719 231.641 184.504 231.772 187.195 230.033 183.642 229.172 180.11 228.331 176.557 227.47 175.674 227.265 171.364 226.816 171.322 225.937 171.301 225.507 171.532 225.114 171.784 224.777 172.583 223.674 173.655 222.758 174.896 222.159 172.961 222.122 170.901 223.337 169.198 222.421 168.357 221.972 167.853 221.093 167.369 220.251 166.633 218.942 165.918 217.633 165.183 216.324 164.909 215.819 164.615 215.202 164.867 214.697 164.993 214.435 165.246 214.267 165.498 214.117 167.222 213.088 169.45 213.219 171.322 213.967 173.193 214.716 174.748 216.006 176.304 217.296 176.977 217.858 177.692 218.456 178.091 219.223 179.058 221.074 178.07 223.281 177.124 225.133 178.848 223.992 179.794 221.785 179.374 219.784 181.056 220.102 182.675 220.831 184.02 221.86 184.272 220.682 183.537 219.503 182.569 218.755 181.623 218.007 180.446 217.596 179.374 217.016 177.608 216.081 176.094 214.697 174.98 213.032 178.176 213.35 181.35 213.65 184.546 213.967 182.948 212.284 180.593 211.33 178.259 211.405 177.187 211.443 176.115 211.686 175.064 211.555 174.013 211.424 172.898 210.732 172.751 209.703 175.611 208.993 178.554 208.675 181.497 208.768 178.659 207.571 175.379 207.422 172.457 208.376 174.265 205.851 176.094 203.326 177.902 200.82 176.031 200.408 173.971 201.811 173.655 203.663 172.92 203.943 172.1 203.345 171.847 202.596 171.595 201.849 171.763 201.063 171.889 200.278 172.478 196.593 172.142 192.759 170.922 189.243 170.291 191.731 170.207 194.349 170.691 196.874 168.105 194.891 165.519 192.89 162.933 190.908 163.585 193.919 168.105 195.452 167.748 198.519 165.056 198.557 162.344 198.295 159.695 197.771 160.347 199.193 162.302 199.23 163.858 199.511 166.066 199.903 168.168 201.287 169.03 203.345 169.892 205.402 169.303 208.058 167.411 209.273 166.045 210.171 164.279 210.208 162.639 210.115 161.398 210.04 160.179 209.909 158.981 209.61 155.932 208.282 153.598 204.953 152.568 201.811 152.442 201.437 152.337 201.082 152.253 200.708L145.378 200.67C145.273 201.044 145.168 201.4 145.042 201.774 144.011 204.841 141.888 208.058 138.924 209.404 137.599 209.741 136.233 209.89 134.866 209.947 133.226 210.021 131.46 209.947 130.094 209.03 128.243 207.777 127.676 205.103 128.58 203.083 129.484 201.044 131.586 199.679 133.815 199.324 135.371 199.062 137.326 199.043 137.999 197.64 135.35 198.145 132.637 198.351 129.946 198.295 129.652 195.228 134.172 193.75 134.887 190.758 132.259 192.722 129.652 194.667 127.024 196.63 127.55 194.124 127.508 191.487 126.898 189 125.615 192.516 125.216 196.331 125.763 200.034 125.868 200.801 126.015 201.605 125.763 202.353 125.51 203.083 124.669 203.7 123.934 203.401 123.66 201.531 121.6 200.128 119.729 200.502 121.516 203.045 123.282 205.589 125.069 208.132 122.146 207.141 118.867 207.253 116.028 208.413 118.972 208.357 121.915 208.712 124.753 209.46 124.585 210.508 123.471 211.162 122.399 211.293 121.327 211.424 120.275 211.162 119.203 211.106 116.869 210.994 114.494 211.91 112.875 213.575 116.071 213.313 119.266 213.032 122.462 212.752 121.348 214.398 119.792 215.763 118.026 216.679 116.953 217.24 115.776 217.633 114.809 218.362 113.842 219.092 113.085 220.27 113.316 221.448 114.683 220.42 116.302 219.728 118.005 219.429 117.563 221.43 118.467 223.655 120.191 224.815 119.266 222.944 118.32 220.719 119.308 218.886 119.729 218.101 120.443 217.54 121.116 216.978 122.672 215.725 124.27 214.454 126.141 213.724 128.012 212.995 130.241 212.901 131.965 213.949 132.217 214.098 132.448 214.285 132.574 214.547 132.827 215.071 132.532 215.669 132.238 216.174 131.502 217.465 130.745 218.774 130.009 220.064 129.526 220.887 129.021 221.766 128.159 222.215 126.435 223.113 124.396 221.879 122.462 221.879 123.681 222.514 124.732 223.431 125.531 224.534 125.784 224.89 126.015 225.282 125.973 225.713 125.91 226.591 121.579 226.984 120.717 227.171 117.164 227.975 113.611 228.78 110.037 229.584 112.707 231.361 116.491 231.286 119.077 229.378 118.698 231.417 116.953 232.875 115.314 234.166 117.206 233.698 118.993 232.782 120.485 231.529 119.539 234.839 116.007 236.616 112.896 238.168 109.784 239.72 106.378 241.909 106 245.331 109.974 242.245 114.262 239.571 118.783 237.364 118.194 239.047 116.701 240.263 115.251 241.329 113.8 242.395 112.244 243.48 111.424 245.069 110.604 246.659 110.793 248.941 112.37 249.838 111.697 248.174 113.001 246.416 114.22 245.088 116.155 242.993 118.068 240.899 120.002 238.785 118.257 241.534 116.449 244.789 117.563 247.837 118.215 244.246 121.348 241.497 122.189 237.944 122.504 236.653 122.504 235.325 122.798 234.035 123.093 232.744 123.807 231.454 125.027 230.93 124.543 236.111 123.387 241.217 121.579 246.098 122.588 244.153 123.639 242.152 125.363 240.805 126.267 245.462 121.768 250.063 123.071 254.645 123.955 252.831 125.09 249.24 126.393 247.669 126.982 248.436 128.412 252.176 128.832 252.176 128.559 251.353 128.264 250.53 127.991 249.707 127.255 247.557 126.54 245.387 126.267 243.143 127.424 244.994 129.442 246.304 131.628 246.565 128.138 244.059 127.823 239.122 127.865 234.876 127.886 232.539 127.886 230.22 127.907 227.882 127.928 225.395 131.208 222.814 132.427 220.625 134.067 217.633 139.617 214.94 142.708 213.406 144.495 212.322 148.363 207.777 148.826 206.898 149.289 207.777 153.073 212.396 154.86 213.5 157.845 215.015 163.48 217.932 165.035 220.85 166.213 223.057 169.471 225.675 169.429 228.162 169.408 230.5 169.387 232.819 169.366 235.157 169.324 239.421 168.946 244.34 165.414 246.809 167.6 246.565 169.661 245.294 170.838 243.442 170.544 245.686 169.787 247.856 169.03 249.988 168.736 250.811 168.441 251.634 168.147 252.457 168.568 252.457 170.039 248.735 170.649 247.987 171.931 249.558 173.004 253.167 173.866 255 175.232 250.437 170.796 245.78 171.763 241.142 173.466 242.507 174.496 244.527 175.484 246.491 173.76 241.591 172.667 236.447 172.268 231.267 173.487 231.809 174.16 233.119 174.454 234.39 174.748 235.681 174.727 237.009 175.001 238.299 175.8 241.852 178.89 244.639 179.479 248.249 180.635 245.219 178.869 241.927 177.166 239.159 179.058 241.273 180.951 243.405 182.843 245.518 184.041 246.865 185.324 248.641 184.63 250.287 186.207 249.408 186.438 247.126 185.639 245.518 184.798 243.872 183.263 242.788 181.813 241.703Z" fill="#7A0B15" fill-rule="evenodd"/></g></svg>