<svg width="30" height="13" xmlns="http://www.w3.org/2000/svg" xmlns:xlink="http://www.w3.org/1999/xlink" overflow="hidden"><defs><clipPath id="clip0"><path d="M136 106 166 106 166 119 136 119Z" fill-rule="evenodd" clip-rule="evenodd"/></clipPath></defs><g clip-path="url(#clip0)" transform="translate(-136 -106)"><path d="M164.867 106.272C164.843 106.342 164.06 108.571 162.751 110.46 162.593 110.687 162.434 110.919 162.264 111.155 162.085 111.404 161.895 111.656 161.687 111.909 160.42 113.447 158.468 114.995 154.087 115.805 146.921 117.13 141.777 114.626 139.204 111.698 139.015 111.483 138.84 111.264 138.679 111.045 138.025 110.16 137.606 109.26 137.432 108.434 137.432 108.434 147.332 109.955 154.524 108.81 161.626 107.679 164.789 106.305 164.867 106.272Z" fill="#4C1717" fill-rule="evenodd"/><path d="M164.867 106.272C164.845 106.335 164.216 108.128 163.145 109.857 162.897 110.258 162.541 110.769 162.264 111.154 159.236 111.571 154.652 112.056 154.338 111.937 154.034 111.822 153.977 111.586 153.974 111.439 153.957 111.623 153.912 111.949 153.829 111.972 153.733 111.996 150.918 111.953 149.831 111.935 149.598 111.931 149.414 111.77 149.419 111.571L149.457 110.385C149.184 111 149.281 111.917 148.498 111.871 145.947 111.724 146.283 111.741 138.679 111.045 138.103 110.262 137.627 109.362 137.432 108.434 137.432 108.434 147.332 109.955 154.524 108.81 161.626 107.679 164.789 106.305 164.867 106.272Z" fill="#FFFFFF" fill-rule="evenodd"/><path d="M164.867 106.272C164.845 106.335 164.216 108.128 163.145 109.857 161.958 109.819 160.057 109.752 158.991 109.691 158.88 109.685 158.747 109.68 158.594 109.678 156.483 109.654 150.572 110.033 147.921 110.229 145.603 110.399 140.141 110.357 138.207 110.336 138.135 110.215 138.067 110.094 138.005 109.974 137.727 109.447 137.536 108.927 137.432 108.434 137.432 108.434 147.332 109.955 154.524 108.81 161.626 107.679 164.789 106.305 164.867 106.272Z" fill="#F95A5A" fill-rule="evenodd"/><path d="M161.687 111.908C161.616 111.993 161.544 112.078 161.47 112.163 160.197 113.615 158.227 115.04 154.087 115.805 147.23 117.073 142.225 114.834 139.551 112.075 139.431 111.95 139.315 111.824 139.204 111.698 142.721 112.171 147.28 112.75 149.241 112.859 151.452 112.983 157.789 112.455 161.687 111.908Z" fill="#FFFFFF" fill-rule="evenodd"/><path d="M161.47 112.163C160.197 113.615 158.227 115.04 154.087 115.805 147.23 117.073 142.225 114.834 139.551 112.075 140.092 112.254 140.854 112.508 141.788 112.825 143.743 113.487 146.267 113.772 147.009 113.792 147.752 113.812 148.178 113.312 148.178 113.312 148.178 113.312 148.083 113.678 148.412 113.982 148.74 114.285 150.032 114.19 150.196 114.069 150.361 113.947 150.569 113.476 150.569 113.476 150.569 113.476 150.869 113.763 151.71 113.739 152.553 113.713 152.081 113.783 154.103 113.598 156.125 113.413 155.49 113.023 157.392 112.974 158.662 112.94 160.435 112.471 161.47 112.163Z" fill="#E4F0F4" fill-rule="evenodd"/><path d="M158.347 110.21C158.347 110.21 158.399 109.662 159.344 109.435 160.287 109.208 160.991 109.057 161.156 109.532 161.321 110.008 161.09 111.31 161.09 111.31L158.572 111.495 158.347 110.21Z" fill="#FFFFFF" fill-rule="evenodd"/><path d="M161.292 110.973C161.292 110.973 160.856 109.606 161.315 109.161 161.776 108.716 163.445 108.85 163.445 108.85L163.645 108.989 162.779 110.863 161.292 110.973Z" fill="#FFFFFF" fill-rule="evenodd"/><path d="M137.854 109.671 138.524 110.829 139.897 110.889 140.126 110.135C140.126 110.134 138.714 108.826 137.854 109.671Z" fill="#FFFFFF" fill-rule="evenodd"/><path d="M139.832 111.103 140.119 110.147C140.119 110.147 140.141 110.007 140.915 109.924 141.688 109.841 142.516 110.356 142.516 110.356L142.365 111.089 139.832 111.103Z" fill="#FFFFFF" fill-rule="evenodd"/><path d="M164.867 106.272C164.843 106.342 164.06 108.571 162.751 110.46 162.653 110.599 162.556 110.742 162.456 110.885 162.373 110.901 162.301 110.906 162.244 110.901 160.875 110.8 157.399 111.315 156.809 111.068 156.221 110.819 154.874 110.555 154.317 110.618 153.759 110.682 153.976 111.462 153.976 111.462 153.976 111.462 153.741 111.038 153.569 110.468 153.397 109.898 151.152 109.991 150.574 110.381 150.063 110.728 150.033 111.685 149.548 111.837 149.467 111.771 149.417 111.676 149.419 111.571L149.457 110.385C149.245 110.861 149.256 111.511 148.915 111.764 148.679 111.681 148.714 111.591 148.714 111.591 148.714 111.591 148.634 110.504 148.138 110.261 147.64 110.018 145.795 110.167 145.277 110.491 144.81 110.784 144.688 111.232 144.668 111.315 144.677 111.239 144.71 110.865 144.61 110.558 144.499 110.214 143.247 110.281 142.204 110.227 141.578 110.193 141.416 110.535 141.387 110.815 141.301 110.535 141.011 110.156 140.106 109.966 139.258 109.788 138.508 109.868 138.005 109.975 137.727 109.447 137.536 108.927 137.432 108.434 137.432 108.434 147.332 109.955 154.524 108.81 161.626 107.679 164.789 106.305 164.867 106.272Z" fill="#E4F0F4" fill-rule="evenodd"/><path d="M164.867 106.272C164.861 106.289 164.811 106.431 164.72 106.664 164.055 108.373 163.185 109.881 162.714 110.511 161.755 110.282 160.651 110.087 159.382 109.957 157.895 109.803 155.795 109.784 153.417 109.85 151.912 109.891 150.296 109.965 148.656 110.06 145.112 110.264 141.448 110.563 138.524 110.828 138.325 110.543 138.152 110.259 138.005 109.974 137.804 109.593 137.648 109.214 137.537 108.847 137.496 108.708 137.46 108.57 137.432 108.434 137.432 108.434 147.332 109.955 154.524 108.81 161.626 107.679 164.789 106.305 164.867 106.272Z" fill="#AF592E" fill-rule="evenodd" fill-opacity="0.458824"/><path d="M164.867 106.272C164.861 106.289 164.811 106.431 164.72 106.664 164.284 106.789 163.698 107.007 162.913 107.376 160.572 108.474 156.652 109.391 153.417 109.85 152.834 109.933 152.273 110.001 151.748 110.053 150.993 110.127 149.902 110.119 148.656 110.06 144.221 109.851 137.814 108.991 137.538 108.847 137.184 108.663 137.061 108.32 137.061 108.32 137.061 108.32 148.867 108.374 149.686 108.314 150.504 108.254 150.285 108.707 150.799 108.669 151.312 108.631 151.504 108.104 152.729 108.088 153.956 108.071 164.867 106.272 164.867 106.272Z" fill="#F48371" fill-rule="evenodd"/><path d="M164.71 106.667C163.327 107.174 161.298 108.639 154.634 109.817 151.978 110.274 150.74 110.374 147.724 110.163 143.721 109.881 138.261 109.113 137.537 108.846 138.137 109.026 144.608 109.681 147.76 109.854 151.195 110.045 151.708 109.933 154.57 109.514 157.045 109.115 160.609 108.302 162.418 107.534 163.426 107.101 164.247 106.809 164.71 106.667Z" fill="#681D17" fill-rule="evenodd"/><path d="M164.806 106.397C164.519 107.491 163.556 110.964 162.093 112.906 160.31 115.273 155.089 118.188 149.877 118.118 144.665 118.049 138.403 112.452 137.06 108.321 137.06 108.321 137.14 108.314 137.284 108.301 138.316 109.474 140.954 112.345 142.237 113.335 143.862 114.589 149.062 115.4 152.108 114.957 155.058 114.528 163.605 110.247 164.806 106.397Z" fill="#F48371" fill-rule="evenodd"/><path d="M137.838 108.919C138.433 109.536 141.624 112.823 142.576 113.355 144.65 114.617 150.343 115.361 153.353 114.431 154.719 113.997 156.759 113.131 159.057 111.787 161.495 110.359 163.656 108.946 164.711 106.668 163.839 109.036 161.659 110.583 159.289 112.061 154.05 115.34 151.367 115.381 149.124 115.264 143.852 114.962 141.938 113.308 141.923 113.3 140.459 112.059 139.04 110.341 137.838 108.919Z" fill="#601A12" fill-rule="evenodd"/><path d="M149.957 116.749C149.866 117.092 148.857 117.213 147.7 117.021 146.544 116.828 145.68 116.394 145.771 116.05 145.861 115.707 146.871 115.586 148.027 115.778 149.183 115.972 150.047 116.405 149.957 116.749Z" fill="#F99A91" fill-rule="evenodd"/></g></svg>