<svg width="74" height="80" xmlns="http://www.w3.org/2000/svg" xmlns:xlink="http://www.w3.org/1999/xlink" overflow="hidden"><defs><clipPath id="clip0"><path d="M120 249 194 249 194 329 120 329Z" fill-rule="evenodd" clip-rule="evenodd"/></clipPath></defs><g clip-path="url(#clip0)" transform="translate(-120 -249)"><path d="M190.1 267.925C186.466 263.92 180.026 262.707 175.139 265.064 173.12 266.048 171.398 267.535 169.422 268.634 167.467 269.732 165.044 270.419 162.94 269.595 161.325 268.954 154.418 262.249 152.271 257.467 151.379 255.453 150.571 252.593 149.849 249 148.212 249.595 146.406 249.984 144.345 250.007 144.748 252.043 145.173 253.943 145.662 255.59 147.405 261.494 149.934 264.401 153.058 267.879 154.205 269.297 155.311 270.762 156.331 272.272 159.263 276.574 161.686 282.043 159.54 286.735 158.328 289.389 155.799 291.311 153.079 292.455 150.359 293.622 147.405 294.149 144.493 294.744 138.118 296.071 131.615 297.993 126.642 302.135 121.669 306.277 118.587 313.188 120.649 319.275 122.285 324.103 126.812 327.49 131.785 329 132.677 326.391 134.101 324.149 135.759 321.998 132.507 321.403 129.383 319.069 128.98 315.865 128.831 314.721 129.107 313.462 129.936 312.638 130.637 311.952 131.657 311.654 132.613 311.494 134.42 311.197 136.269 311.334 138.054 311.769 147.277 314.08 157.032 316.643 166.447 314.835 173.927 313.394 180.749 309.137 185.552 303.325 190.355 297.513 193.16 290.213 193.861 282.73 194.35 277.49 193.649 271.815 190.1 267.925Z" fill="#DF6068" fill-rule="evenodd"/><path d="M181.143 275.898C178.823 272.818 175.637 272.908 172.326 273.044 171.313 273.089 165.512 274.448 163.888 273.859 160.175 272.478 157.834 269.352 155.134 266.884 152.328 264.324 149.945 261.425 148.785 257.915 148.299 256.443 147.899 254.767 147.54 253 146.823 253.136 146.042 253.204 145.262 253.272 145.599 254.925 146 256.51 146.464 257.915 147.814 262.037 150.556 265.502 153.805 268.582 155.197 269.919 156.758 271.164 157.982 272.614 160.007 274.969 161.778 277.642 163.192 280.337 166.166 285.999 163.529 291.458 157.602 294.515 150.662 298.094 142.393 296.939 134.989 299.249 134.082 299.521 133.238 299.838 132.416 300.177 128.007 302.012 123.683 305.523 123.092 309.803 123.008 310.347 122.987 310.89 123.008 311.434 124.315 311.366 125.665 311.57 126.931 312 126.678 309.237 127.838 306.474 130.159 305.772 133.323 304.82 139.693 305.183 142.266 305.455 146.886 305.953 151.379 306.723 156.041 306.655 164.816 306.519 175.595 306.451 180.341 299.294 184.117 293.541 185.868 282.172 181.143 275.898Z" fill="#BB7A7E" fill-rule="evenodd"/></g></svg>